<svg version="1.1" id="Layer_1" xmlns="http://www.w3.org/2000/svg" xmlns:xlink="http://www.w3.org/1999/xlink" x="0px" y="0px"
	 width="100%" viewBox="0 0 1024 1024" enable-background="new 0 0 1024 1024" xml:space="preserve">
<path fill="#ffffff" opacity="1.000000" stroke="none" 
	d="
M389.422119,488.000916 
	C389.409180,517.660706 389.349548,546.820679 389.407867,575.980469 
	C389.423492,583.778381 390.061462,591.590027 388.468719,599.312622 
	C383.959290,621.177490 365.434906,636.371887 343.271667,636.372009 
	C277.453339,636.372437 211.635025,636.369385 145.816711,636.347229 
	C119.479622,636.338379 99.653519,616.531372 99.651337,590.263855 
	C99.645897,524.778748 99.691422,459.293640 99.628281,393.808624 
	C99.605385,370.056732 118.853203,351.178497 139.596008,349.449677 
	C144.925110,349.005524 150.220215,348.854187 155.529648,348.850464 
	C216.848877,348.807617 278.168152,348.816986 339.487427,348.838165 
	C346.167419,348.840454 352.737518,349.676483 359.129303,351.759277 
	C375.984070,357.251526 389.226074,374.838562 389.317566,392.551117 
	C389.481110,424.200439 389.399048,455.851044 389.422119,488.000916 
M346.953400,565.518616 
	C346.000458,564.362305 345.177826,563.059753 344.072296,562.074707 
	C338.862549,557.432556 338.521271,552.853882 341.881836,546.405273 
	C347.964813,534.732483 349.585602,521.767334 349.642975,508.657043 
	C349.652222,506.545807 349.529755,504.373138 346.739197,504.344360 
	C340.123688,504.276093 333.481171,503.801300 326.488495,504.774048 
	C326.355072,514.736206 326.284637,524.421082 321.005646,533.940613 
	C313.466034,524.810425 306.552765,516.507324 299.722687,508.136322 
	C296.672943,504.398590 293.421326,500.749268 290.927216,496.654266 
	C287.944366,491.756866 289.535248,487.923187 294.380310,486.623901 
	C317.195496,480.505554 333.091400,460.678314 333.637543,437.048492 
	C333.995575,421.558075 333.798492,406.054504 333.816040,390.556763 
	C333.824219,383.339508 333.787659,383.301361 326.631653,383.304108 
	C286.133606,383.319611 245.635574,383.350372 205.137527,383.384949 
	C178.101501,383.408020 156.204926,403.533081 153.218506,430.435333 
	C151.942017,441.934082 152.431595,453.395203 152.394562,464.868469 
	C152.261673,506.032715 152.437424,547.198181 152.231567,588.361816 
	C152.205780,593.516052 153.719925,595.033081 158.742798,594.748718 
	C165.886200,594.344360 173.077530,594.444092 180.233032,594.722595 
	C184.597702,594.892517 185.908585,593.461060 185.876968,589.006714 
	C185.664169,559.009888 185.810104,529.010620 185.649673,499.013184 
	C185.627441,494.854156 186.981079,493.518311 191.085907,493.582611 
	C203.415466,493.775726 215.752167,493.510742 228.081863,493.699554 
	C232.131165,493.761536 233.928711,492.528931 233.683594,488.310333 
	C233.263565,481.081482 235.667221,474.571411 239.279617,468.428162 
	C240.173477,466.908081 242.100342,465.487854 241.115112,463.565308 
	C240.004166,461.397369 237.559464,462.141541 235.656372,462.138153 
	C220.824036,462.111816 205.990234,462.077240 191.159927,462.274048 
	C187.078598,462.328247 185.482666,460.983948 185.656708,456.799744 
	C185.919678,450.477905 185.613586,444.134766 185.729462,437.803986 
	C185.966980,424.829590 194.297256,416.759613 207.251785,416.643433 
	C236.743652,416.378998 266.234406,415.939026 295.726746,415.799133 
	C310.093201,415.731018 308.759674,413.389587 308.050842,428.539124 
	C307.202148,446.679016 300.834320,458.613678 280.829041,462.587006 
	C277.919861,463.164795 275.068665,464.290039 272.346344,465.509491 
	C259.516785,471.256683 253.479156,480.885376 254.413315,494.256775 
	C254.628494,497.336670 255.551865,500.367126 256.135529,503.349792 
	C254.232254,504.799774 252.233551,504.981018 250.300140,505.404449 
	C225.225708,510.896301 210.161148,534.939758 216.389496,559.515076 
	C220.431992,575.465576 230.786453,586.353821 245.544540,592.195435 
	C270.524323,602.083008 294.497986,599.917114 315.961029,582.582153 
	C319.348480,579.846313 321.117493,580.177002 323.458191,583.471985 
	C325.668121,586.582947 328.335052,589.370117 330.813171,592.289368 
	C332.053711,593.750793 333.491425,594.562195 335.570679,594.490234 
	C344.392395,594.184753 353.220459,594.065613 362.043518,593.792603 
	C363.917725,593.734680 366.133820,594.379150 367.658234,591.566467 
	C361.600067,582.695862 354.219269,574.599121 346.953400,565.518616 
z"/>
<path fill="#ffffff" opacity="1.000000" stroke="none" 
	d="
M719.647339,502.999756 
	C719.647522,461.168732 719.645508,419.837708 719.650269,378.506683 
	C719.651062,371.670319 719.664734,371.646698 726.478882,371.643646 
	C742.477966,371.636475 758.481567,371.423676 774.474609,371.738647 
	C786.151794,371.968628 797.662292,373.803528 808.598022,378.170380 
	C832.340637,387.651367 847.232544,404.809235 852.440918,429.908173 
	C857.114990,452.432434 853.862000,473.712402 840.327454,492.677399 
	C827.167603,511.117310 808.578491,520.683472 786.382996,523.265686 
	C765.637634,525.679260 744.771912,523.919189 723.966309,524.392456 
	C720.723083,524.466248 719.524292,523.208435 719.616577,519.997253 
	C719.774597,514.502319 719.652161,508.999359 719.647339,502.999756 
M751.383667,495.786224 
	C752.285095,498.090271 754.328247,497.615570 756.080688,497.612854 
	C762.397461,497.603088 768.690186,497.270325 775.005554,496.867828 
	C801.903381,495.153412 824.211670,477.065857 822.820496,444.799866 
	C821.959778,424.836700 811.574280,409.406372 792.706665,402.660339 
	C780.378296,398.252411 767.600037,398.182159 754.760315,398.364227 
	C751.383545,398.412079 751.069702,400.439636 751.074341,402.983948 
	C751.130676,433.632080 751.177734,464.280212 751.383667,495.786224 
z"/>
<path fill="#ffffff" opacity="1.000000" stroke="none" 
	d="
M652.391357,452.633514 
	C658.654236,459.715698 664.686340,466.533508 671.305481,474.014801 
	C675.705261,465.972107 677.892883,458.172424 679.379639,450.240356 
	C680.054626,446.639618 681.440796,445.507172 684.912537,445.617828 
	C691.168640,445.817230 697.435608,445.674133 704.159302,445.674133 
	C701.590576,461.500793 696.857361,475.598480 689.264771,488.647614 
	C687.398743,491.854828 687.802368,493.641846 690.279419,496.297058 
	C697.662415,504.211090 704.655945,512.488953 711.777710,520.645508 
	C712.495605,521.467712 713.051147,522.431580 713.675171,523.319885 
	C711.973816,524.864868 710.241638,524.350403 708.658142,524.368774 
	C703.325745,524.430908 697.924744,523.849182 692.673889,524.505493 
	C683.565552,525.644165 676.450928,523.262024 671.588623,515.165955 
	C669.795471,512.180176 667.705444,512.546082 665.017944,514.481201 
	C653.514954,522.763916 640.516663,527.458008 626.436829,527.951660 
	C609.209595,528.555847 593.187622,524.562866 581.309326,510.908447 
	C565.255676,492.454437 567.724121,465.033417 586.496887,448.770294 
	C591.138245,444.749359 596.242065,441.368713 601.357300,438.325409 
	C600.905823,435.647858 599.144897,434.464569 597.911743,432.960388 
	C579.252808,410.200775 590.509521,376.559357 619.290710,370.013245 
	C634.141235,366.635559 648.560608,367.965210 660.855286,378.161072 
	C679.195312,393.370239 677.294678,422.596924 657.091675,437.412079 
	C653.625793,439.953705 649.874023,442.105347 646.055908,444.564972 
	C647.335999,447.840332 650.221191,449.752136 652.391357,452.633514 
M641.273132,498.757111 
	C644.550049,497.259277 648.000183,496.037872 650.455261,493.273224 
	C650.035828,490.928772 648.355896,489.680084 647.060852,488.235382 
	C639.847107,480.187958 632.561584,472.204834 625.305176,464.195648 
	C617.030579,455.062714 614.942017,455.049103 605.976440,464.095612 
	C605.391296,464.686005 604.780396,465.260315 604.263428,465.907562 
	C598.891602,472.633545 597.181885,480.255157 600.046326,488.331299 
	C602.842773,496.215912 609.178467,500.037994 617.230835,501.803131 
	C625.436646,503.601868 633.027161,501.967468 641.273132,498.757111 
M628.925720,391.356232 
	C619.744568,392.968475 614.938477,398.653198 615.366516,407.394409 
	C615.622070,412.613159 624.305603,424.584686 629.041870,426.106262 
	C629.748291,426.333252 630.718872,426.234772 631.411255,425.931152 
	C637.970581,423.054962 643.649536,419.044037 646.615723,412.278107 
	C650.225952,404.043274 646.419250,395.500183 638.133667,392.253967 
	C635.381897,391.175842 632.590576,391.397980 628.925720,391.356232 
z"/>
<path fill="#ffffff" opacity="1.000000" stroke="none" 
	d="
M471.028595,371.626404 
	C500.350952,371.627777 529.179321,371.727539 558.005676,371.534546 
	C562.752991,371.502747 564.625916,372.798157 564.249939,377.687042 
	C563.880493,382.491241 563.898071,387.364288 564.235840,392.172729 
	C564.567810,396.899109 563.009827,398.538635 558.101135,398.477631 
	C538.108093,398.229004 518.110229,398.369080 498.114166,398.370850 
	C491.398041,398.371460 491.375610,398.378174 491.357300,404.913574 
	C491.333984,413.245178 491.496552,421.580597 491.285583,429.906952 
	C491.190979,433.640228 492.543579,434.839081 496.208984,434.811096 
	C514.037781,434.675140 531.869812,434.874451 549.696716,434.641968 
	C554.169983,434.583649 555.586731,436.063904 555.331177,440.394287 
	C555.017456,445.708618 554.937561,451.076019 555.316162,456.380554 
	C555.673096,461.382843 553.613525,462.526337 548.971375,462.463623 
	C531.811218,462.231781 514.643677,462.525726 497.484161,462.270844 
	C492.600677,462.198334 491.192810,463.838165 491.258331,468.589661 
	C491.490356,485.416473 491.233917,502.249756 491.421295,519.077698 
	C491.467834,523.260071 490.045898,524.616455 485.949646,524.445618 
	C479.462280,524.175171 472.941437,524.118713 466.461151,524.465210 
	C461.778717,524.715515 460.557770,522.952698 460.574371,518.455383 
	C460.720459,478.796997 460.658844,439.137878 460.659149,399.478973 
	C460.659210,392.480347 460.652374,385.481689 460.666107,378.483093 
	C460.679535,371.658417 460.689301,371.657928 467.534515,371.628479 
	C468.534332,371.624176 469.534119,371.627319 471.028595,371.626404 
z"/>
<path fill="#ffffff" opacity="1.000000" stroke="none" 
	d="
M658.608337,572.285583 
	C658.473816,571.251892 658.236816,570.495483 658.976746,570.140808 
	C659.554016,569.864075 660.235046,569.765320 660.882202,569.678894 
	C671.173401,568.305481 672.222534,569.033142 675.077698,578.941833 
	C677.506470,587.370422 680.044189,595.767639 682.932922,605.527405 
	C686.051086,595.298523 688.794617,586.310852 691.530151,577.320801 
	C693.947449,569.376770 693.942566,569.509583 702.059875,569.568176 
	C705.277466,569.591431 706.770020,570.748718 707.655945,573.856934 
	C709.978271,582.004822 712.673096,590.046265 715.175110,598.143799 
	C715.661499,599.718079 715.920715,601.367188 717.609619,602.849182 
	C720.525146,597.078796 721.441040,590.836609 723.517639,585.009277 
	C724.129211,583.293213 724.432190,581.469788 724.946411,579.716003 
	C728.187988,568.660950 729.710999,567.799072 741.505981,570.301819 
	C741.875977,572.014465 741.201294,573.553589 740.683411,575.124695 
	C735.841187,589.813477 730.857117,604.458191 726.263000,619.224243 
	C724.974548,623.365479 722.526001,624.139648 718.846436,623.907776 
	C714.986816,623.664490 710.910583,624.794434 709.462524,619.079041 
	C707.629150,611.842651 704.974365,604.813171 702.638367,597.706116 
	C701.987732,595.726562 701.714478,593.500549 699.112244,591.689453 
	C696.195862,600.612366 693.359802,609.068176 690.687134,617.575317 
	C689.619690,620.973145 689.038757,624.178101 684.079407,623.850220 
	C679.322021,623.535706 675.463867,623.762451 673.630981,617.632751 
	C669.109009,602.509888 663.722778,587.645386 658.608337,572.285583 
z"/>
<path fill="#ffffff" opacity="1.000000" stroke="none" 
	d="
M458.846558,567.537598 
	C461.610413,556.176392 469.589355,551.283813 479.838287,549.966858 
	C490.347351,548.616455 499.576935,551.898621 506.551453,560.261230 
	C508.368134,562.439514 508.670807,564.392151 505.786652,566.450928 
	C499.773773,570.743042 499.961853,570.812256 494.101715,566.236816 
	C489.363708,562.537537 484.040070,561.151184 478.196808,563.421814 
	C475.181610,564.593445 473.053772,566.966614 472.710175,570.036438 
	C472.350891,573.246399 474.475555,575.627136 477.254883,577.197144 
	C482.233490,580.009460 487.897034,580.922607 493.192719,582.861084 
	C506.153870,587.605408 511.382690,594.409790 510.278198,605.178772 
	C509.164490,616.037598 500.991425,623.785522 488.121735,625.111328 
	C476.663513,626.291687 466.883972,622.518250 459.484589,613.269104 
	C457.196320,610.408813 457.234802,608.344299 460.547089,606.502197 
	C461.848236,605.778564 463.053131,604.856628 464.220398,603.923096 
	C466.318604,602.245117 467.976807,602.449036 469.688965,604.613586 
	C472.641754,608.346375 476.301605,611.127197 481.069427,612.247070 
	C484.267456,612.998230 487.393982,612.838745 490.322510,611.416626 
	C493.230988,610.004211 495.711212,608.174377 495.880737,604.408936 
	C496.055145,600.535278 494.148560,597.871216 490.907684,596.501892 
	C486.640930,594.699158 482.122711,593.493652 477.718475,592.013855 
	C469.497040,589.251343 461.741882,586.008606 459.261871,576.370789 
	C458.534332,573.543518 458.727753,570.773315 458.846558,567.537598 
z"/>
<path fill="#ffffff" opacity="1.000000" stroke="none" 
	d="
M889.563965,618.567505 
	C873.134460,630.516724 851.195740,626.121033 843.602112,609.654114 
	C835.799988,592.735107 843.859436,573.322510 861.136108,569.420288 
	C880.014526,565.156311 894.952393,576.420288 895.225769,597.691589 
	C895.269714,601.117004 893.057861,601.279846 890.554443,601.278381 
	C880.572021,601.272522 870.589355,601.256165 860.607483,601.334412 
	C858.882629,601.347961 856.578552,600.538147 855.656494,602.616821 
	C854.754883,604.649475 856.263611,606.469788 857.410583,608.065491 
	C862.526184,615.182800 873.505859,615.885132 880.991577,609.710388 
	C882.290710,608.638855 883.198120,606.210449 885.425049,607.369507 
	C888.204041,608.815857 891.288818,610.328003 892.756470,613.127808 
	C894.002502,615.504883 891.129089,616.729919 889.563965,618.567505 
M880.626892,588.781921 
	C878.107422,582.379944 872.285461,578.607849 866.475281,579.613098 
	C859.846985,580.759888 855.677551,585.059570 855.585571,590.843018 
	C858.076172,591.499146 876.593628,592.016235 878.727478,591.495667 
	C879.782288,591.238464 880.520020,590.685425 880.626892,588.781921 
z"/>
<path fill="#ffffff" opacity="1.000000" stroke="none" 
	d="
M745.510010,603.088196 
	C749.288696,593.456787 757.498962,591.886292 765.901123,590.835205 
	C768.853516,590.465881 771.883118,590.750244 774.873596,590.635437 
	C776.605286,590.568909 778.776611,591.190918 779.461914,588.743225 
	C780.048523,586.647583 779.281372,584.847534 777.813904,583.281494 
	C773.552124,578.733398 764.005127,578.924622 758.788696,584.241089 
	C756.032410,587.050232 754.280945,587.217407 751.503235,584.518311 
	C746.888062,580.033813 746.809631,578.600098 751.868408,574.303162 
	C760.588501,566.896362 777.302490,566.501892 786.388428,573.436707 
	C790.648865,576.688416 793.004150,581.218506 793.162170,586.273499 
	C793.540710,598.382080 793.284485,610.510437 793.284485,622.519531 
	C784.973694,625.082275 781.250183,624.170166 780.163452,619.189941 
	C770.723328,625.869446 760.705627,628.207092 750.654846,621.351807 
	C744.497253,617.151917 743.489990,610.524841 745.510010,603.088196 
M762.224670,613.320374 
	C768.698853,616.563660 777.687683,612.259705 779.380005,604.709106 
	C780.112427,601.440979 779.702393,599.215271 775.444702,599.328186 
	C771.454712,599.434082 767.481201,599.403320 763.696777,600.811157 
	C757.523254,603.107971 756.624023,608.387512 762.224670,613.320374 
z"/>
<path fill="#ffffff" opacity="1.000000" stroke="none" 
	d="
M528.401367,574.290771 
	C541.033325,565.661743 557.726135,567.044006 566.911438,577.220337 
	C576.252747,587.569702 576.714478,604.535217 567.948547,615.329773 
	C558.685486,626.736572 539.822327,628.701050 528.373779,619.451355 
	C516.347107,609.734558 514.129883,591.053345 523.651611,579.197693 
	C524.996155,577.523499 526.625610,576.078125 528.401367,574.290771 
M542.341064,612.508301 
	C552.990234,614.358337 558.707214,608.073364 560.415588,599.816223 
	C561.902527,592.629089 558.090881,584.606018 551.909424,581.770142 
	C545.808533,578.971252 539.211548,580.550293 534.983582,586.057922 
	C527.861389,595.335693 531.646240,609.252869 542.341064,612.508301 
z"/>
<path fill="#ffffff" opacity="1.000000" stroke="none" 
	d="
M611.710571,569.992310 
	C614.171936,572.836731 613.221069,575.910706 613.101257,578.802734 
	C612.993469,581.402893 610.686707,581.040344 608.905029,581.125732 
	C599.351135,581.583374 599.357483,581.578308 599.347534,591.285767 
	C599.337219,601.265625 599.316528,611.245544 599.280945,621.225342 
	C599.279236,621.708557 599.090210,622.191101 598.939575,622.905762 
	C595.821472,624.039978 592.464050,623.414917 589.226990,623.653809 
	C585.627258,623.919434 586.113464,620.844360 586.091553,618.650757 
	C585.988770,608.338806 585.989319,598.025696 585.997559,587.712952 
	C586.000244,584.313416 586.383972,581.332825 581.310791,580.719055 
	C577.367676,580.241882 579.362061,576.120422 579.098450,573.570435 
	C578.874268,571.402222 579.566467,569.492004 582.343567,569.673218 
	C585.665161,569.890076 586.381775,568.459412 586.375854,565.192566 
	C586.346924,549.301147 598.006165,546.272583 609.400513,547.966187 
	C614.628052,548.743103 612.945496,553.204102 612.850647,556.411072 
	C612.736023,560.285095 609.956848,558.892334 607.710815,558.642029 
	C604.199646,558.250793 601.578735,559.657654 600.111816,562.984375 
	C598.138672,567.459106 599.425720,569.516541 604.290649,569.642212 
	C606.616455,569.702332 608.941956,569.771545 611.710571,569.992310 
z"/>
<path fill="#ffffff" opacity="1.000000" stroke="none" 
	d="
M648.809814,612.759766 
	C651.766235,611.520996 653.114746,612.758728 653.188232,615.182922 
	C653.272217,617.955994 656.285706,621.199707 651.683411,623.372009 
	C638.929138,629.392090 625.778015,621.462646 625.702637,607.536438 
	C625.662964,600.213440 625.617432,592.889282 625.709045,585.567322 
	C625.743713,582.800903 625.073608,581.003052 621.883667,581.144348 
	C617.902893,581.320679 617.814697,578.575317 617.960815,575.748596 
	C618.108459,572.890503 617.228943,569.316101 622.118652,569.609680 
	C624.660828,569.762329 625.725159,568.379395 625.672913,565.929932 
	C625.637451,564.266602 625.690063,562.601562 625.693665,560.937256 
	C625.709290,553.823181 625.718079,554.052673 632.889404,553.738770 
	C637.536011,553.535339 639.441833,554.860718 639.290955,559.842163 
	C638.932312,571.685852 639.402344,569.501160 648.794312,569.673096 
	C649.774841,569.691040 650.752502,569.868469 651.776123,569.976685 
	C653.138794,572.415588 652.072510,574.954041 652.402039,577.361206 
	C652.798279,580.256287 651.324829,580.986633 648.641418,581.125732 
	C639.174072,581.616455 639.183411,581.706055 639.202271,591.452332 
	C639.211609,596.278992 639.155212,601.106079 639.208740,605.932129 
	C639.281494,612.489868 641.863098,614.401245 648.809814,612.759766 
z"/>
<path fill="#ffffff" opacity="1.000000" stroke="none" 
	d="
M830.111084,569.622070 
	C833.037292,568.792603 836.367371,567.360962 837.724731,570.061340 
	C839.234619,573.065125 838.638611,576.921265 837.889893,580.342102 
	C837.600159,581.665894 835.985596,581.323059 834.850586,581.418152 
	C825.349060,582.214294 819.524597,588.431641 819.374634,598.116821 
	C819.266479,605.100098 819.222961,612.089294 819.393982,619.069885 
	C819.476196,622.423950 818.349426,623.798096 814.879700,623.940979 
	C806.245117,624.296692 805.922607,624.104370 805.930237,615.379333 
	C805.941589,602.407471 805.845886,589.434570 806.000549,576.464539 
	C806.029907,574.005798 804.467712,570.483154 808.914734,569.695312 
	C815.221863,568.578064 818.325317,569.768677 820.037903,574.080566 
	C820.149841,574.362427 820.437378,574.574524 820.882935,575.103943 
	C823.805298,573.223511 826.297729,570.646729 830.111084,569.622070 
z"/>
<path fill="#ffffff" opacity="1.000000" stroke="none" 
	d="
M284.257812,570.646606 
	C273.415314,573.672302 263.679047,572.916687 254.655151,566.064270 
	C242.977936,557.197021 243.459106,536.229919 258.285126,528.778259 
	C259.766327,528.033813 261.257141,527.279114 262.810272,526.712036 
	C271.972504,523.366699 272.474548,523.609314 278.726074,531.086060 
	C285.118835,538.731812 291.668549,546.246826 298.182739,553.790405 
	C303.255035,559.664185 303.218536,560.196411 296.676270,564.637756 
	C292.951416,567.166443 288.979980,569.220215 284.257812,570.646606 
z"/>
</svg>